<svg width="425" height="369" viewBox="0 0 425 369" fill="none" xmlns="http://www.w3.org/2000/svg">
<path fill-rule="evenodd" clip-rule="evenodd" d="M230.469 0.512151C230.469 0.795503 230.324 1.02734 230.146 1.02734C229.714 1.02734 229.404 0.490859 229.678 0.216437C230.064 -0.170296 230.469 -0.0188341 230.469 0.512151ZM198.918 3.436C201.254 4.62883 202.282 7.22262 201.628 10.2739C201.323 11.6958 201.019 12.1918 200.046 12.8543L198.841 13.6741L199.647 14.0976C200.091 14.3305 200.94 15.062 201.535 15.7232L202.617 16.9256L203.663 15.7331C204.964 14.2498 207.885 13.2846 210.401 13.5072C212.666 13.7074 215.865 15.2334 216.874 16.5952C220.025 20.8472 218.212 27.6384 213.478 29.3128L212.117 29.7946L213.57 30.3868C217.431 31.9601 219.152 37.1948 217.112 41.1576C215.593 44.1075 212.927 45.6813 209.469 45.6692C206.887 45.6603 204.93 44.8632 203.598 43.2784C203.079 42.6609 202.604 42.2141 202.541 42.2848C202.479 42.3559 202.174 42.9137 201.864 43.524C201.554 44.1347 200.869 44.9528 200.343 45.3426L199.386 46.0508L200.692 47.4665C201.41 48.2452 201.997 49.0011 201.997 49.1461C201.997 49.2913 202.164 49.8453 202.367 50.377L202.736 51.3438L203.219 50.2011C204.194 47.8928 206.549 46.6247 209.826 46.6436C211.582 46.6536 212.266 46.8284 213.345 47.5431C217.124 50.047 217.791 55.092 214.785 58.4235C213.231 60.1456 211.717 60.7889 209.218 60.7889C207.595 60.7889 206.98 60.6034 205.627 59.706C204.729 59.1101 203.748 58.1055 203.446 57.4735C202.764 56.0406 202.485 56.0262 202.209 57.41C201.947 58.7237 200.061 61.2928 198.996 61.7887C198.054 62.227 198.003 62.7329 198.871 63.009C199.667 63.2618 201.219 65.4555 201.845 67.2109C202.101 67.929 202.317 69.3853 202.325 70.4466L202.34 72.3765L201.054 72.5894C200.346 72.7065 194.964 72.8041 189.093 72.8061C177.908 72.8103 174.531 73.1184 170.629 74.4912C163.425 77.0266 155.855 84.7674 153.276 92.2362C151.932 96.1286 151.821 97.3232 151.595 110.418C151.595 110.418 151.369 118.661 151.369 123.47C151.369 127.783 147.295 133.725 144.539 136.644C141.763 139.585 139.305 141.346 135.348 143.233C130.156 145.708 130.11 145.714 113.323 145.969C99.1689 146.184 98.0732 146.245 95.7166 146.95C90.5286 148.5 87.5459 150.197 83.5537 153.868C79.2513 157.825 76.917 161.528 75.1761 167.159L74.242 170.18L74.1237 184.628C74.0153 197.898 74.0602 199.339 74.6753 202.316C75.961 208.537 77.6466 211.67 82.3575 216.594C85.8602 220.255 89.0875 222.566 92.5847 223.916C97.2266 225.709 100.186 225.989 114.524 225.993C129.22 225.997 130.761 226.198 135.982 228.788C141.904 231.726 145.463 235.248 148.507 241.181C151.384 246.79 151.569 247.981 151.583 260.994C151.596 273.014 151.818 275.333 153.383 279.833C156.182 287.885 164.666 295.842 172.682 297.937C175.937 298.787 182.483 299.245 188.79 299.064C193.274 298.936 195.01 299.012 196.302 299.395C199.496 300.34 203.003 304.652 203.574 308.336C203.817 309.905 204.063 310.099 204.755 309.263C205.394 308.493 207.882 307.431 209.237 307.35C211.751 307.2 214.934 308.68 216.115 310.549C218.654 314.57 216.743 320.623 212.536 321.886L211.163 322.298L212.741 322.83C214.83 323.534 217.186 325.553 218.082 327.406C219.672 330.693 218.566 336.463 216.075 337.882C215.504 338.208 215.045 338.551 215.055 338.646C215.066 338.74 215.721 339.283 216.511 339.851C217.302 340.42 218.18 341.383 218.463 341.99C218.968 343.077 219.492 343.462 219.492 342.748C219.492 342.263 221.469 340.45 222.751 339.76C223.864 339.161 228.197 338.957 229.869 339.425C230.807 339.688 230.812 339.705 230.812 342.735C230.812 348.04 228.296 354.406 224.297 359.217C220.953 363.24 214.256 367.309 209.201 368.391C205.295 369.226 182.351 369.194 178.671 368.348C173.702 367.206 167.478 363.624 164.342 360.101C161.999 357.468 159.261 352.727 158.203 349.47C157.388 346.96 157.283 345.974 157.012 338.302C156.849 333.674 156.805 328.88 156.914 327.647C157.299 323.327 156.071 317.724 153.716 313.056C150.633 306.947 142.672 299.791 136.552 297.629C132.38 296.155 130.257 295.973 116.067 295.871C101.06 295.763 99.493 295.602 94.9935 293.709C89.4302 291.369 82.9616 285.435 80.57 280.479C78.1025 275.365 77.6988 272.859 77.601 262.055C77.4545 245.822 77.1002 243.224 74.3079 237.899C73.1611 235.712 71.9574 234.192 68.734 230.861C62.1446 224.052 58.0334 221.405 52.0162 220.1C49.2377 219.497 47.3287 219.396 36.9982 219.311C24.4673 219.206 21.8286 218.939 17.4855 217.338C12.0131 215.321 5.67384 209.232 2.51314 202.956C0.358889 198.68 0.217563 197.707 0.0443313 185.973C-0.139877 173.53 0.189083 170.521 2.19891 166.261C5.48483 159.295 12.0035 153.052 18.1445 150.989C22.5957 149.494 24.4655 149.335 38.8849 149.221C54.4573 149.099 55.875 148.93 60.6428 146.641C68.3967 142.917 73.8743 136.682 76.4724 128.622C77.2034 126.354 77.26 125.459 77.4686 112.823C77.4686 112.823 77.6895 104.579 77.6895 99.4279C77.6895 96.5839 80.0763 92.1962 81.4004 89.8248C84.3835 84.4847 90.7296 79.506 97.3796 77.289C100.254 76.3304 108.809 75.7613 116.582 76.0116C133.864 76.568 139.34 74.7669 148.701 65.4507C151.758 62.4083 152.366 61.5974 153.742 58.7282C156.555 52.8612 156.806 51.2741 156.922 38.6359C157.055 24.1966 157.58 21.4479 161.272 15.8633C165.557 9.38125 173.013 4.25962 179.825 3.11968C180.794 2.95757 185.182 2.80679 189.576 2.78481C196.951 2.74772 197.669 2.79786 198.918 3.436ZM267.173 3.60327C267.173 3.88662 267.019 4.11845 266.83 4.11845C266.642 4.11845 266.487 3.88662 266.487 3.60327C266.487 3.31991 266.642 3.08808 266.83 3.08808C267.019 3.08808 267.173 3.31991 267.173 3.60327ZM222.291 5.53144C226.092 8.24098 224.165 14.4222 219.52 14.4222C214.925 14.4222 212.716 9.21295 215.984 6.08371C216.498 5.59119 217.305 5.02759 217.777 4.83113C218.943 4.34583 221.096 4.67967 222.291 5.53144ZM208.526 5.32639C212.019 7.13504 210.587 12.7049 206.628 12.7049C205.308 12.7049 203.794 11.7985 203.204 10.6555C201.379 7.12198 204.997 3.4992 208.526 5.32639ZM238.702 9.09858C238.702 9.57118 238.415 10.0867 238.04 10.2873C236.514 11.1054 235.287 9.27031 236.632 8.18052C237.6 7.39538 238.702 7.88412 238.702 9.09858ZM185.836 11.7463C185.613 12.1633 185.148 12.743 184.803 13.0343C184.203 13.5402 184.226 13.6178 185.311 14.7849L186.448 16.0059L188.897 13.4478L187.901 12.5586C187.352 12.0695 186.904 11.5158 186.904 11.3283C186.904 10.7152 186.251 10.9708 185.836 11.7463ZM169.752 12.4095C169.752 12.6249 169.512 12.9766 169.219 13.1909C168.749 13.535 168.78 13.6686 169.477 14.3191C170.263 15.0538 170.271 15.0541 171.089 14.3861L171.911 13.7153L171.115 12.8667C170.257 11.9527 169.752 11.7834 169.752 12.4095ZM248.117 21.664C248.006 21.8429 247.77 21.8989 247.591 21.7883C247.413 21.6777 247.357 21.4411 247.467 21.2621C247.578 21.0832 247.814 21.0272 247.993 21.1378C248.171 21.2484 248.227 21.485 248.117 21.664ZM202.176 27.1088C202.059 27.4753 201.426 28.248 200.768 28.8261L199.572 29.8778L200.768 30.9294C201.426 31.5075 202.059 32.2802 202.176 32.6467C202.469 33.5744 202.779 33.4813 203.509 32.2442C203.882 31.6108 204.762 30.9002 205.669 30.498L207.2 29.82L205.8 29.1263C205.03 28.745 204.023 27.985 203.563 27.4378C202.576 26.2622 202.453 26.233 202.176 27.1088ZM239.045 27.4736C239.045 27.6625 238.89 27.817 238.702 27.817C238.513 27.817 238.359 27.6625 238.359 27.4736C238.359 27.2847 238.513 27.1301 238.702 27.1301C238.89 27.1301 239.045 27.2847 239.045 27.4736ZM184.628 29.8269L186.558 31.6507L187.615 30.5925C188.196 30.0103 188.511 29.5343 188.316 29.5343C188.12 29.5343 187.607 29.1599 187.175 28.7021L186.389 27.8699L184.628 29.8269ZM169.765 29.1665C169.47 29.7181 169.484 30.0412 169.824 30.5272C170.255 31.1427 170.29 31.1396 170.815 30.4355C171.317 29.7648 171.312 29.6552 170.756 29.0747C170.17 28.4627 170.14 28.4655 169.765 29.1665ZM229.37 32.59C232.061 33.9642 232.962 37.5904 231.313 40.4071C230.218 42.2776 228.786 43.038 226.352 43.0401C223.488 43.0421 221.609 41.7476 220.684 39.1339C220.233 37.8618 220.211 37.3565 220.555 36.1204C220.977 34.5989 222.485 32.7844 223.753 32.2706C225.068 31.7383 228.033 31.9065 229.37 32.59ZM222.82 43.4453C223.796 44.1299 224.409 46.0192 224.001 47.087C223.308 48.9005 221.432 49.7018 219.637 48.9506C216.512 47.6434 217.4 42.9291 220.772 42.9291C221.493 42.9291 222.415 43.1613 222.82 43.4453ZM184.912 46.2205L186.505 47.7561L187.444 46.8847C187.961 46.4056 188.32 45.9763 188.244 45.9309C188.167 45.8856 187.718 45.5188 187.247 45.1159L186.389 44.3837L184.912 46.2205ZM169.971 45.5717C169.561 45.9821 169.75 46.7072 170.267 46.7072C170.55 46.7072 170.781 46.4846 170.781 46.2122C170.781 45.6383 170.292 45.2512 169.971 45.5717ZM228.945 52.5789C229.248 53.0687 228.247 54.0712 227.758 53.7683C227.104 53.3641 227.319 52.2025 228.047 52.2025C228.414 52.2025 228.818 52.3718 228.945 52.5789ZM221.831 59.1575C221.771 59.5823 221.49 59.9303 221.207 59.9303C220.924 59.9303 220.643 59.5823 220.583 59.1575C220.499 58.5626 220.642 58.3847 221.207 58.3847C221.772 58.3847 221.915 58.5626 221.831 59.1575ZM184.831 62.4605L186.474 64.105L188.63 62.3345L186.389 60.5626L184.831 62.4605ZM170.095 62.3142C170.095 62.6085 170.249 62.8497 170.438 62.8497C170.627 62.8497 170.781 62.7044 170.781 62.5265C170.781 62.3486 170.627 62.1078 170.438 61.991C170.249 61.8742 170.095 62.0199 170.095 62.3142ZM212.807 63.1962C214.104 63.9985 214.858 65.5781 214.811 67.3933C214.728 70.5915 211.289 72.6406 208.348 71.2434C206.645 70.4342 205.773 68.9467 205.772 66.8448C205.771 65.36 205.919 65.0241 207.102 63.8395C208.275 62.6649 208.628 62.5062 210.063 62.5062C211.096 62.5062 212.101 62.7586 212.807 63.1962ZM224.123 70.4057C224.239 70.5946 224.094 70.7492 223.8 70.7492C223.506 70.7492 223.265 70.5946 223.265 70.4057C223.265 70.2168 223.41 70.0623 223.588 70.0623C223.766 70.0623 224.006 70.2168 224.123 70.4057ZM288.428 81.2081C289.142 82.0699 288.718 82.9419 287.584 82.9419C286.875 82.9419 286.528 82.7537 286.445 82.3244C286.309 81.6162 286.949 80.7094 287.584 80.7094C287.821 80.7094 288.2 80.9337 288.428 81.2081ZM278.47 83.0807C278.929 83.4035 279.594 84.2268 279.948 84.9103C280.784 86.5238 280.345 88.3527 278.748 89.9024C275.482 93.0715 269.999 90.0316 271.095 85.6597C271.365 84.5847 273.251 82.5713 274.206 82.3398C275.339 82.0654 277.581 82.4549 278.47 83.0807ZM315.633 83.1995C315.853 83.8298 315.535 84.4875 315.01 84.4875C314.407 84.4875 314.06 83.8923 314.299 83.2689C314.534 82.6579 315.429 82.6112 315.633 83.1995ZM262.857 85.0394C263.537 85.3008 263.565 86.6702 262.902 87.2214C262.302 87.7198 261.14 87.4127 260.86 86.6818C260.749 86.3923 260.817 85.8572 261.012 85.4931C261.377 84.81 261.916 84.6777 262.857 85.0394ZM299.949 87.7349C302.012 89.8008 299.713 93.1611 297.004 92.038C295.194 91.2872 294.753 89.4006 296.013 87.7967C296.968 86.5812 298.768 86.553 299.949 87.7349ZM341.547 92.8215C341.684 93.531 340.694 94.0095 340.171 93.4861C339.648 92.9626 340.126 91.9714 340.835 92.1081C341.163 92.1713 341.484 92.4924 341.547 92.8215ZM262.92 96.6459C264.559 98.2872 264.545 99.896 262.876 101.567C261.774 102.67 261.536 102.761 260.217 102.584C255.586 101.962 255.936 95.5396 260.604 95.4901C261.463 95.4812 262.048 95.7728 262.92 96.6459ZM325.77 98.3082C325.639 99.2293 324.635 99.5213 324.331 98.7269C324.041 97.9713 324.354 97.5388 325.19 97.5388C325.708 97.5388 325.853 97.7301 325.77 98.3082ZM310.671 98.3625C313.66 99.9097 314.257 103.609 311.9 105.97C310.424 107.448 308.811 107.774 306.793 107.002C302.059 105.192 303.379 97.8885 308.44 97.8837C309.157 97.883 310.161 98.0983 310.671 98.3625ZM278.028 99.4914C278.96 100.103 279.866 101.961 279.864 103.258C279.864 103.796 279.562 104.731 279.193 105.336C277.365 108.339 273.182 108.127 271.648 104.954C271.262 104.157 270.947 103.236 270.947 102.909C270.947 101.626 272.682 99.3193 274.034 98.8041C274.79 98.516 277.163 98.9244 278.028 99.4914ZM294.118 100.852C295.439 102.279 295.364 103.827 293.906 105.181C292.47 106.515 290.852 106.472 289.673 105.068C288.7 103.911 288.621 103.509 289.114 102.212C290.012 99.8455 292.549 99.1562 294.118 100.852ZM258.109 109.042C259.816 110.043 261.196 112.129 261.528 114.211C262.294 119.01 257.682 123.254 252.801 122.24C250.168 121.692 247.852 119.374 247.306 116.737C246.778 114.192 247.46 111.909 249.279 110.13C251.783 107.682 255.096 107.274 258.109 109.042ZM326.836 111.839C327.77 113.027 327.734 113.869 326.705 114.899C325.665 115.941 324.579 115.974 323.539 114.995C322.528 114.044 322.509 112.554 323.496 111.634C324.555 110.646 325.967 110.732 326.836 111.839ZM310.851 115.136C311.878 115.867 312.797 117.605 312.797 118.815C312.797 120.205 311.695 122.257 310.578 122.948C307.41 124.908 303.197 122.698 303.193 119.074C303.189 115.011 307.539 112.774 310.851 115.136ZM277.985 115.543C280.043 116.893 280.735 119.509 279.643 121.812C278.97 123.232 277.979 123.942 276.073 124.371C273.333 124.988 270.604 122.518 270.604 119.42C270.604 115.837 274.952 113.553 277.985 115.543ZM294.53 117.315C296.976 119.87 294.826 123.801 291.342 123.146C287.942 122.508 287.364 117.92 290.486 116.353C292.009 115.589 293.133 115.856 294.53 117.315ZM331.942 125.106C332.079 125.816 331.089 126.294 330.566 125.771C330.043 125.248 330.521 124.256 331.23 124.393C331.558 124.456 331.879 124.777 331.942 125.106ZM424.547 126.325C424.622 126.549 424.438 126.733 424.14 126.733C423.841 126.733 423.596 126.488 423.596 126.189C423.596 125.582 424.335 125.688 424.547 126.325ZM367.682 126.389C367.682 126.578 367.441 126.733 367.147 126.733C366.853 126.733 366.708 126.578 366.825 126.389C366.941 126.2 367.182 126.046 367.359 126.046C367.537 126.046 367.682 126.2 367.682 126.389ZM235.957 127.597C235.957 128.261 235.031 128.473 234.568 127.915C233.984 127.21 234.799 126.197 235.489 126.77C235.746 126.985 235.957 127.357 235.957 127.597ZM285.697 127.935C285.697 128.552 285.512 128.793 285.04 128.793C284.678 128.793 284.315 128.6 284.233 128.364C283.987 127.659 284.356 127.076 285.048 127.076C285.512 127.076 285.697 127.321 285.697 127.935ZM318.971 127.763C319.349 128.141 319.657 128.57 319.657 128.717C319.657 129.415 318.506 130.511 317.771 130.511C317.036 130.511 315.884 129.415 315.884 128.717C315.884 128.251 317.235 127.076 317.771 127.076C318.054 127.076 318.594 127.385 318.971 127.763ZM246.701 129.476C250.973 132.189 251.535 136.843 248.026 140.46C246.685 141.843 246.101 142.182 244.486 142.512C242.281 142.963 241.164 142.783 239.216 141.659C236.731 140.226 235.985 138.93 235.92 135.936C235.822 131.426 238.645 128.524 243.18 128.472C244.728 128.454 245.387 128.642 246.701 129.476ZM262.236 130.03C263.607 130.724 264.172 131.269 264.778 132.486C266.986 136.912 264.807 141.264 260.142 141.746C255.955 142.179 252.777 139.426 252.768 135.357C252.765 134.089 254.146 131.616 255.388 130.668C257.724 128.884 259.625 128.707 262.236 130.03ZM275.676 129.506C279.067 130.69 278.148 136.006 274.552 136.006C272.926 136.006 272.109 135.542 271.435 134.237C270.749 132.91 271.018 131.221 272.067 130.266C273.338 129.108 274.085 128.951 275.676 129.506ZM295.148 132.62C296.358 133.851 296.435 134.072 296.372 136.132C296.339 137.189 296.059 137.734 295 138.794C293.802 139.993 293.492 140.128 291.927 140.128C290.376 140.128 290.034 139.983 288.799 138.807C287.64 137.703 287.412 137.266 287.413 136.145C287.415 131.794 292.197 129.615 295.148 132.62ZM310.6 132.946C311.754 134.032 312.21 135.848 311.616 136.997C310.712 138.749 309.62 139.316 307.471 139.151C307.088 139.121 306.277 138.642 305.67 138.086C304.741 137.237 304.564 136.83 304.564 135.546C304.564 134.227 304.73 133.871 305.768 132.958C306.783 132.066 307.193 131.92 308.373 132.034C309.21 132.115 310.106 132.482 310.6 132.946ZM387.542 134.417C388.113 135.107 387.626 136.062 386.766 135.938C385.924 135.818 385.581 134.679 386.258 134.249C386.894 133.846 387.09 133.871 387.542 134.417ZM232.214 137.779C232.987 139.226 231.449 140.872 229.958 140.192C228.807 139.666 228.645 138.488 229.596 137.536C230.507 136.624 231.653 136.73 232.214 137.779ZM346.544 137.568C346.782 138.188 345.849 139.122 345.23 138.884C344.493 138.601 344.33 137.798 344.895 137.233C345.46 136.667 346.262 136.83 346.544 137.568ZM228.176 142.735C230.334 143.471 232.969 145.914 234.099 148.226C234.901 149.866 234.997 150.406 234.848 152.416C234.672 154.806 233.767 157.035 232.514 158.171C231.527 159.065 231.684 160.205 233.114 162.524C235.375 166.192 234.975 170.523 232.157 172.898C231.606 173.362 231.155 173.878 231.155 174.044C231.155 174.596 228.724 175.517 226.715 175.728C224.251 175.986 221.832 175.249 220.18 173.738L219.007 172.665L218.487 173.483C218.201 173.933 217.45 174.804 216.818 175.419C215.955 176.256 215.791 176.583 216.161 176.726C216.432 176.83 217.1 177.796 217.644 178.871C218.511 180.584 218.632 181.19 218.617 183.747C218.606 185.821 218.423 187.033 217.988 187.934C217.23 189.501 215.733 191.1 214.357 191.812C213.37 192.323 212.953 193.02 213.634 193.02C214.342 193.02 216.149 194.932 216.966 196.547C218.847 200.263 218.163 204.334 215.199 207.07C214.361 207.843 213.441 208.476 213.153 208.476C212.126 208.476 212.674 209.008 214.78 210.055C217.548 211.431 218.856 213.19 219.075 215.827C219.196 217.301 219.063 218.054 218.454 219.312C216.768 222.8 212.172 224.051 208.839 221.93C208.001 221.396 207.083 220.524 206.801 219.992L206.288 219.025L199.941 219.24C196.449 219.359 190.274 219.32 186.218 219.154C177.721 218.807 175.877 218.357 171.014 215.448C164.759 211.705 160.155 205.972 158.108 199.374C156.461 194.066 156.455 174.393 158.1 169.15C160.753 160.692 167.773 153.529 176.363 150.519C178.62 149.727 179.594 149.621 187.224 149.339C191.834 149.168 196.234 149.151 197.001 149.301C197.768 149.45 202.27 149.522 207.004 149.461L215.614 149.349L216.381 147.496C218.187 143.134 223.297 141.071 228.176 142.735ZM245.823 145.44C248.933 146.89 250.365 149.055 250.365 152.308C250.365 155.787 247.966 158.7 244.517 159.409C241.833 159.962 240 159.385 237.967 157.35C234.529 153.907 234.929 148.675 238.833 146.032C241.228 144.41 243.246 144.239 245.823 145.44ZM258.19 145.714C258.327 146.423 257.337 146.902 256.814 146.378C256.291 145.855 256.769 144.864 257.478 145.001C257.806 145.064 258.127 145.385 258.19 145.714ZM297.204 146.466C299.513 148.777 296.904 152.695 293.888 151.444C292.594 150.908 291.755 149.341 292.048 148.006C292.542 145.753 295.585 144.844 297.204 146.466ZM270.947 146.997C270.947 147.448 270.718 147.684 270.281 147.684C269.527 147.684 269.087 147.166 269.403 146.653C269.799 146.013 270.947 146.268 270.947 146.997ZM281.238 147.864C281.238 148.778 280.644 149.101 279.78 148.656C279.018 148.263 279.008 147.471 279.759 147.05C280.589 146.585 281.238 146.942 281.238 147.864ZM310.564 149.315C311.049 149.835 311.535 150.607 311.644 151.032C312.15 153.007 310.428 155.243 308.409 155.235C306.593 155.227 305.519 154.563 304.965 153.104C304.007 150.585 305.491 148.371 308.136 148.371C309.379 148.371 309.854 148.555 310.564 149.315ZM421.195 148.714C421.195 148.903 421.041 149.057 420.852 149.057C420.664 149.057 420.509 148.903 420.509 148.714C420.509 148.525 420.664 148.371 420.852 148.371C421.041 148.371 421.195 148.525 421.195 148.714ZM325.957 150.113C327.741 151.517 326.834 154.209 324.578 154.209C321.831 154.209 321.151 151.14 323.602 149.798C324.581 149.262 324.937 149.31 325.957 150.113ZM342.17 151.343C342.66 153.299 340.563 154.187 339.583 152.439C338.933 151.279 339.515 150.431 340.961 150.431C341.736 150.431 341.99 150.622 342.17 151.343ZM357.915 151.477C358.23 151.987 357.435 152.831 356.852 152.607C356.1 152.318 356.242 151.118 357.028 151.118C357.394 151.118 357.793 151.28 357.915 151.477ZM372.485 155.24C372.485 155.429 372.33 155.583 372.142 155.583C371.953 155.583 371.798 155.429 371.798 155.24C371.798 155.051 371.953 154.896 372.142 154.896C372.33 154.896 372.485 155.051 372.485 155.24ZM218.493 158.422C218.309 158.908 217.901 159.449 217.588 159.625C217.08 159.909 217.116 160.042 217.912 160.839C218.403 161.332 218.806 161.896 218.806 162.093C218.806 162.714 219.436 162.483 219.659 161.781C219.775 161.412 220.403 160.917 221.054 160.682C222.427 160.184 222.547 159.845 221.464 159.517C221.04 159.389 220.273 158.891 219.761 158.411L218.829 157.538L218.493 158.422ZM392.229 159.394C392.532 159.884 391.53 160.886 391.041 160.584C390.387 160.179 390.603 159.018 391.331 159.018C391.698 159.018 392.102 159.187 392.229 159.394ZM235.957 160.392C235.957 160.58 235.803 160.735 235.614 160.735C235.426 160.735 235.271 160.58 235.271 160.392C235.271 160.203 235.426 160.048 235.614 160.048C235.803 160.048 235.957 160.203 235.957 160.392ZM249.123 165.388C249.361 166.008 248.428 166.942 247.809 166.704C247.071 166.421 246.909 165.618 247.473 165.053C248.038 164.487 248.84 164.65 249.123 165.388ZM326.581 166.459C326.944 166.788 327.204 167.498 327.204 168.159C327.204 170.532 324.216 171.631 322.77 169.79C321.799 168.555 321.876 167.398 322.996 166.358C324.04 165.39 325.444 165.429 326.581 166.459ZM342.762 166.729C344.106 167.976 344.04 169.979 342.614 171.18C340.966 172.568 338.967 172.205 338.004 170.341C336.433 167.299 340.252 164.4 342.762 166.729ZM312.046 167.008C312.183 167.718 311.193 168.196 310.67 167.673C310.147 167.149 310.625 166.158 311.334 166.295C311.662 166.358 311.983 166.679 312.046 167.008ZM391.682 166.73C392.201 167.357 391.864 167.948 390.988 167.948C390.571 167.948 390.322 167.712 390.322 167.318C390.322 166.193 390.996 165.902 391.682 166.73ZM358.015 167.481C358.566 168.467 358.094 169.371 357.089 169.254C356.441 169.179 356.158 168.921 356.075 168.33C355.893 167.045 357.403 166.385 358.015 167.481ZM373.857 168.119C373.857 168.403 373.625 168.635 373.342 168.635C373.059 168.635 372.828 168.403 372.828 168.119C372.828 167.836 373.059 167.604 373.342 167.604C373.625 167.604 373.857 167.836 373.857 168.119ZM245.709 176.043C246.341 176.676 246.376 177.028 245.893 177.931C245.177 179.271 242.818 178.499 242.818 176.925C242.818 176.36 243.852 175.504 244.533 175.504C244.883 175.504 245.413 175.746 245.709 176.043ZM235.614 177.049C235.614 177.333 235.46 177.564 235.271 177.564C235.083 177.564 234.928 177.333 234.928 177.049C234.928 176.766 235.083 176.534 235.271 176.534C235.46 176.534 235.614 176.766 235.614 177.049ZM228.239 177.257C230.187 177.791 232.72 180.469 233.034 182.326C233.351 184.204 233.028 185.486 231.818 187.158C231.265 187.923 230.812 188.681 230.812 188.843C230.812 189.379 228.173 190.34 226.447 190.434C223.739 190.58 220.952 188.918 219.949 186.56C219.356 185.165 219.294 182.217 219.829 180.827C220.381 179.391 222.803 177.285 224.089 177.122C226.148 176.861 226.88 176.885 228.239 177.257ZM328.78 179.308C330.242 180.524 330.691 183.006 329.771 184.788C329.11 186.067 327.759 186.767 325.411 187.043C323.635 187.252 323.521 187.216 322.637 186.164C321.052 184.278 321.549 180.29 323.5 179.245C325.323 178.268 327.56 178.295 328.78 179.308ZM345.618 180.386C346.554 181.322 346.873 181.963 347.01 183.183C347.456 187.145 344.083 189.806 340.401 188.398C336.578 186.936 336.1 182.018 339.553 179.687C340.542 179.02 341.077 178.903 342.58 179.024C344.112 179.147 344.6 179.365 345.618 180.386ZM384.769 182.807C384.906 183.517 383.916 183.995 383.393 183.472C382.87 182.948 383.348 181.957 384.057 182.094C384.385 182.157 384.706 182.478 384.769 182.807ZM359.767 183.278C360.158 183.775 360.478 184.373 360.478 184.605C360.478 184.838 360.158 185.435 359.767 185.933C358.732 187.251 357.325 187.155 356.208 185.689C355.727 185.057 355.333 184.432 355.333 184.299C355.333 184.166 355.741 183.678 356.241 183.215C357.452 182.091 358.854 182.116 359.767 183.278ZM373.857 184.434C373.857 184.811 373.712 185.12 373.534 185.12C373.074 185.12 372.749 184.495 372.999 184.09C373.358 183.509 373.857 183.709 373.857 184.434ZM248.924 186.563C249.651 187.291 249.413 188.832 248.478 189.445C247.684 189.966 247.557 189.966 246.763 189.445C246.189 189.069 245.905 188.567 245.905 187.929C245.905 186.736 246.47 186.151 247.621 186.151C248.111 186.151 248.698 186.336 248.924 186.563ZM201.371 191.067C200.283 192.227 200.358 194.134 201.529 195.056C203.36 196.498 205.625 195.609 205.993 193.303C206.162 192.251 206.048 191.893 205.312 191.156C204.157 190 202.409 189.96 201.371 191.067ZM221.436 191.501C221.55 191.799 221.391 192.296 221.082 192.605C220.562 193.125 220.479 193.125 219.959 192.605C219.258 191.903 219.58 190.959 220.521 190.959C220.91 190.959 221.322 191.203 221.436 191.501ZM408.096 191.737C408.232 192.447 407.242 192.925 406.719 192.402C406.196 191.878 406.674 190.887 407.383 191.024C407.712 191.087 408.032 191.408 408.096 191.737ZM235.562 193.667C236.257 194.108 235.888 195.237 235.009 195.362C234.087 195.494 233.635 194.612 234.246 193.874C234.731 193.289 234.919 193.259 235.562 193.667ZM228.453 195.264C231.694 196.4 233.55 200.71 232.043 203.598C230.73 206.114 227.918 207.458 225.391 206.776C221.511 205.73 219.464 201.592 221.171 198.244C221.999 196.618 222.889 195.82 224.529 195.235C226.227 194.628 226.651 194.632 228.453 195.264ZM326.493 199.077C327.375 200.2 327.399 201.29 326.562 202.324C325.755 203.322 323.78 203.403 322.762 202.481C321.217 201.08 322.479 198.172 324.631 198.172C325.466 198.172 325.978 198.421 326.493 199.077ZM341.718 198.834C343.474 199.502 342.898 202.637 341.019 202.637C339.153 202.637 338.193 200.518 339.435 199.143C340.075 198.435 340.514 198.376 341.718 198.834ZM358.203 200.318C358.339 200.827 358.213 201.238 357.835 201.521C357.115 202.058 356.981 202.056 356.213 201.493C355.696 201.115 355.657 200.909 355.988 200.291C356.53 199.276 357.93 199.293 358.203 200.318ZM373.986 200.417C374.102 200.721 373.966 201.031 373.665 201.147C372.993 201.404 372.687 201.094 372.946 200.419C373.206 199.74 373.726 199.739 373.986 200.417ZM197.198 200.743C196.587 201.481 197.04 202.363 197.961 202.231C198.841 202.106 199.209 200.977 198.515 200.537C197.872 200.129 197.683 200.158 197.198 200.743ZM320.279 206.506C320.416 207.215 319.426 207.694 318.903 207.17C318.38 206.647 318.858 205.656 319.567 205.792C319.895 205.856 320.216 206.177 320.279 206.506ZM242.132 207.388C242.132 207.835 241.724 208.132 241.392 207.927C241.038 207.708 241.344 207.102 241.809 207.102C241.987 207.102 242.132 207.231 242.132 207.388ZM186.371 208.505C186.244 208.711 186.312 209.051 186.522 209.261C186.802 209.542 186.904 209.442 186.904 208.888C186.904 208.058 186.726 207.931 186.371 208.505ZM200.75 210.019C200.631 210.329 200.698 210.747 200.899 210.948C201.422 211.472 202.412 210.993 202.276 210.284C202.124 209.493 201.025 209.302 200.75 210.019ZM224.187 212.313C225.66 213.7 224.818 216.032 222.844 216.032C220.728 216.032 219.731 213.731 221.207 212.254C222.1 211.36 223.196 211.382 224.187 212.313ZM309.96 213.495C310.38 213.76 310.973 214.458 311.276 215.046C312.837 218.067 309.306 222.039 306.223 220.733C304.113 219.839 303.287 218.161 303.887 215.985C304.657 213.194 307.583 211.994 309.96 213.495ZM326.604 215.372C327.776 216.807 327.221 218.81 325.484 219.417C322.731 220.377 320.773 217.278 322.778 215.135C323.456 214.411 323.816 214.289 324.803 214.446C325.463 214.551 326.274 214.968 326.604 215.372ZM341.817 215.264C342.607 215.792 343.022 217.036 342.645 217.741C341.563 219.766 338.867 219.097 338.867 216.803C338.867 215.516 340.735 214.541 341.817 215.264ZM357.878 215.897C358.673 216.202 358.551 217.654 357.692 218.115C357.094 218.435 356.844 218.384 356.286 217.825C355.728 217.267 355.676 217.016 355.997 216.417C356.395 215.672 356.917 215.527 357.878 215.897ZM317.881 221.788C317.963 222.366 317.818 222.557 317.301 222.557C316.464 222.557 316.151 222.125 316.441 221.369C316.745 220.575 317.749 220.867 317.881 221.788ZM398.212 223.224C398.212 224.149 397.563 224.459 396.938 223.833C396.313 223.207 396.622 222.557 397.546 222.557C397.977 222.557 398.212 222.793 398.212 223.224ZM326.477 224.496C326.178 224.857 325.971 224.876 325.611 224.577C325.251 224.277 325.231 224.07 325.53 223.71C325.829 223.349 326.036 223.33 326.396 223.629C326.757 223.928 326.776 224.136 326.477 224.496ZM270.879 225.519C271.011 226.446 269.982 226.89 269.295 226.203C268.596 225.503 269.042 224.543 270.002 224.68C270.483 224.748 270.814 225.065 270.879 225.519ZM262.15 229.146C264.037 230.384 264.968 233.419 263.988 235.137C263.443 236.092 261.72 237.51 260.727 237.822C259.338 238.257 257.324 237.687 256.204 236.54C254.188 234.475 254.175 231.593 256.171 229.454C257.046 228.516 257.375 228.396 259.083 228.396C260.485 228.396 261.319 228.6 262.15 229.146ZM323.231 229.787C324.063 230.587 324.079 232.297 323.263 233.2C322.49 234.056 320.482 234.123 319.599 233.323C318.775 232.577 318.759 230.405 319.572 229.696C320.812 228.614 322.042 228.644 323.231 229.787ZM277.84 230.015C278.43 230.364 279.057 231.184 279.378 232.024C279.861 233.292 279.864 233.573 279.406 234.671C278.15 237.682 274.027 237.99 272.327 235.199C271.947 234.574 271.635 233.695 271.634 233.245C271.633 232.293 272.801 230.268 273.632 229.783C274.542 229.251 276.754 229.373 277.84 230.015ZM293.782 230.471C296.803 232.341 295.61 236.852 292.119 236.761C290.997 236.731 290.512 236.503 289.747 235.645C288.162 233.869 288.518 231.715 290.607 230.44C291.984 229.6 292.379 229.603 293.782 230.471ZM310.807 231.16C311.71 232.064 311.825 232.379 311.65 233.478C311.354 235.344 309.666 236.777 308.069 236.518C305.538 236.107 304.49 233.741 305.831 231.467C306.458 230.404 306.86 230.215 308.621 230.153C309.468 230.124 310.032 230.383 310.807 231.16ZM338.028 230.487C338.382 231.06 337.587 231.716 337.113 231.242C336.718 230.846 336.965 230.113 337.495 230.113C337.662 230.113 337.901 230.281 338.028 230.487ZM248.599 231.741C251.907 234.214 251.758 238.998 248.316 240.756C245.86 242.01 243.46 241.516 241.672 239.389C239.389 236.672 240.678 232.21 244.054 231.14C245.453 230.697 247.578 230.978 248.599 231.741ZM324.237 242.982C324.468 243.586 323.934 243.987 323.249 243.723C322.668 243.5 322.958 242.478 323.602 242.478C323.845 242.478 324.131 242.705 324.237 242.982ZM260.913 243.55C266.04 246.035 265.206 253.553 259.618 255.229C258.001 255.714 255.715 255.285 254.315 254.234C250.538 251.398 251.094 245.391 255.312 243.472C257.162 242.631 259.072 242.657 260.913 243.55ZM312.154 244.689C316.055 247.344 314.968 253.266 310.351 254.511C305.27 255.881 301.499 249.68 304.991 245.697C306.309 244.195 306.986 243.901 309.201 243.873C310.485 243.857 311.235 244.065 312.154 244.689ZM246.06 246.091C248.166 248.198 248.137 250.648 245.986 252.424C243.206 254.718 239.278 253.054 238.878 249.412C238.617 247.03 240.762 244.882 243.401 244.882C244.605 244.882 245.06 245.089 246.06 246.091ZM277.246 246.043C281.441 247.797 280.238 253.468 275.671 253.468C274.297 253.468 273.181 252.744 272.488 251.404C271.265 249.035 272.428 246.534 275.063 245.867C275.535 245.748 275.964 245.632 276.017 245.61C276.071 245.587 276.624 245.782 277.246 246.043ZM295.045 246.936C296.927 249.026 296.24 252.237 293.682 253.307C290.974 254.439 288.098 252.448 288.098 249.442C288.098 248.273 289.845 246.027 290.934 245.796C292.559 245.45 294.089 245.875 295.045 246.936ZM231.155 251.543C231.155 252.061 230.322 252.52 229.988 252.185C229.536 251.733 229.823 251.064 230.469 251.064C230.846 251.064 231.155 251.28 231.155 251.543ZM270.261 256.216C271.641 257.599 270.626 259.994 268.658 259.994C267.37 259.994 266.487 259.073 266.487 257.728C266.487 255.754 268.853 254.807 270.261 256.216ZM238.345 257.222C238.761 257.998 238.517 258.829 237.793 259.108C236.607 259.563 235.3 257.676 236.186 256.789C236.659 256.315 238.005 256.585 238.345 257.222ZM306.096 258.078C307.235 258.555 308.337 260.088 308.337 261.196C308.337 263.101 306.054 264.927 304.131 264.559C302.82 264.308 301.477 262.616 301.477 261.216C301.477 259.971 302.533 258.386 303.668 257.927C304.672 257.52 304.778 257.527 306.096 258.078ZM317.599 259.802C317.599 260.474 316.934 260.84 316.502 260.406C316.308 260.213 316.254 259.886 316.38 259.681C316.716 259.136 317.599 259.224 317.599 259.802ZM293.917 261.876C295.602 262.749 296.331 263.998 296.331 266.011C296.331 267.679 296.228 267.907 294.958 269.056C292.792 271.015 290.17 270.693 288.538 268.267C286.086 264.624 290.073 259.886 293.917 261.876ZM261.517 262.206C263.87 263.19 264.761 266.204 263.367 268.462C262.37 270.077 261.029 270.709 259.215 270.419C255.174 269.772 254.166 264.524 257.671 262.385C258.98 261.585 259.927 261.541 261.517 262.206ZM278.376 262.432C280.914 264.003 281.199 266.846 279.046 269.143C277.991 270.269 276.792 270.615 275.046 270.295C272.871 269.896 271.633 268.351 271.633 266.032C271.633 264.517 271.781 264.164 272.903 263.014C273.996 261.894 274.386 261.711 275.693 261.711C276.637 261.711 277.653 261.984 278.376 262.432ZM244.092 262.737C244.932 262.747 246.93 264.885 247.266 266.133C247.935 268.621 246.383 271.287 243.84 272.017C240.478 272.983 237.096 269.594 238.015 266.179C238.586 264.055 241.157 262.199 242.99 262.587C243.367 262.667 243.863 262.735 244.092 262.737ZM226.977 264.4C227.059 264.961 226.91 265.146 226.376 265.146C225.916 265.146 225.666 264.924 225.666 264.516C225.666 263.211 226.787 263.111 226.977 264.4ZM304.049 272.359C304.049 272.637 303.78 272.916 303.449 272.98C303.028 273.061 302.849 272.876 302.849 272.359C302.849 271.841 303.028 271.656 303.449 271.737C303.78 271.801 304.049 272.08 304.049 272.359ZM315.884 276.251C315.884 276.503 315.783 276.811 315.658 276.935C315.348 277.246 314.474 276.476 314.707 276.098C315 275.624 315.884 275.74 315.884 276.251ZM263.123 277.968C266.826 281.17 265.039 287.177 260.221 287.72C256.816 288.104 254.325 286.069 254.172 282.777C254.024 279.562 255.863 277.315 259.112 276.741C260.2 276.549 262.184 277.156 263.123 277.968ZM245.66 277.33C246.325 277.608 247.347 278.416 247.931 279.125C249.909 281.527 249.176 285.357 246.431 286.967C242.323 289.378 237.172 286.068 237.862 281.461C238.372 278.055 242.352 275.946 245.66 277.33ZM278.411 277.852C281.591 279.793 281.698 284.139 278.617 286.235C275.543 288.326 271.198 286.398 270.706 282.723C270.17 278.728 274.924 275.723 278.411 277.852ZM309.378 277.744C312.741 279.733 311.637 285.125 307.761 285.645C304.987 286.017 302.679 283.788 302.962 281.01C303.278 277.9 306.699 276.159 309.378 277.744ZM294.239 278.008C298.304 280.113 296.542 286.44 291.892 286.44C288.246 286.44 286.256 282.525 288.308 279.389C289.47 277.614 292.235 276.97 294.239 278.008ZM286.612 290.773C287.139 291.578 287.147 291.766 286.695 292.576C285.693 294.373 283.296 293.673 283.296 291.585C283.296 289.796 285.604 289.232 286.612 290.773ZM257.104 291.91C260.284 293.852 258.684 298.799 254.876 298.803C253.157 298.806 251.394 296.934 251.394 295.108C251.394 292.051 254.493 290.316 257.104 291.91ZM273.36 292.114C275.879 293.418 274.87 297.431 272.024 297.431C268.995 297.431 268.084 293.463 270.775 291.989C271.706 291.479 272.179 291.502 273.36 292.114ZM230.302 293.657C233.324 296.591 232.404 301.32 228.564 302.589C226.519 303.265 224.059 302.257 222.636 300.16C221.968 299.176 221.855 298.647 221.97 297.014C222.116 294.918 222.63 294.07 224.466 292.898C226.119 291.842 228.79 292.19 230.302 293.657ZM246.249 293.484C248.093 294.434 249.187 296.653 248.894 298.845C248.562 301.318 246.429 302.926 243.481 302.926C241.887 302.926 241.577 302.795 240.409 301.626C238.82 300.035 238.144 297.92 238.692 296.257C239.65 293.351 243.353 291.992 246.249 293.484ZM210.365 297.952C214.175 299.762 212.717 305.679 208.463 305.673C206.308 305.669 204.114 302.945 204.574 300.846C205.185 298.064 207.824 296.744 210.365 297.952ZM218.329 303.556C219.183 305.28 217.639 306.878 215.89 306.08C215.215 305.772 215.032 305.435 215.032 304.496C215.032 303.726 215.245 303.177 215.633 302.946C216.587 302.376 217.891 302.671 218.329 303.556ZM229.783 310.453C231.115 311.397 232.184 313.207 232.184 314.517C232.184 317.875 229.382 320.066 225.421 319.806C223.333 319.669 221.233 316.233 221.703 313.724C221.963 312.338 223.874 310.199 225.192 309.819C226.564 309.424 228.759 309.727 229.783 310.453ZM202.38 319.259C202.145 319.91 201.575 320.893 201.113 321.442L200.273 322.442L201.221 323.43C201.742 323.974 202.34 324.722 202.548 325.091C202.911 325.733 202.97 325.714 203.828 324.693C204.645 323.721 205.247 323.373 207.314 322.682C207.914 322.481 207.849 322.388 206.8 321.944C205.446 321.372 203.369 319.499 203.369 318.85C203.369 317.903 202.782 318.146 202.38 319.259ZM238.359 320.214C238.359 320.466 238.257 320.773 238.133 320.898C237.823 321.208 236.948 320.439 237.182 320.06C237.474 319.587 238.359 319.702 238.359 320.214ZM186.209 321.999C185.551 322.792 186.258 323.376 187.239 322.851C187.653 322.629 187.94 322.417 187.877 322.378C187.813 322.34 187.512 322.119 187.207 321.887C186.758 321.546 186.566 321.567 186.209 321.999ZM229.72 324.769C233.67 326.74 234.776 332.282 231.857 335.482C231.336 336.053 230.825 336.742 230.721 337.014C230.414 337.816 227.608 338.424 225.403 338.165C221.887 337.754 219.492 334.902 219.492 331.126C219.492 325.593 224.783 322.306 229.72 324.769ZM252.191 328.912C252.316 329.036 252.244 329.347 252.032 329.603C251.742 329.952 251.53 329.972 251.181 329.681C250.925 329.469 250.8 329.158 250.903 328.99C251.124 328.633 251.868 328.588 252.191 328.912ZM202.105 335.373C200.739 335.965 199.816 337.647 200.114 339.005C200.404 340.326 202.116 341.737 203.43 341.737C204.653 341.737 206.8 339.804 206.8 338.703C206.8 336.145 204.344 334.404 202.105 335.373ZM237.269 338.417C237.333 338.748 237.161 338.989 236.86 338.989C236.223 338.989 235.838 338.43 236.14 337.941C236.45 337.438 237.135 337.727 237.269 338.417ZM186.404 338.622C186.17 339.002 186.711 339.412 187.028 339.094C187.353 338.768 187.293 338.302 186.924 338.302C186.746 338.302 186.512 338.446 186.404 338.622ZM216.035 353.045C214.713 354.368 214.644 356.33 215.874 357.658C216.541 358.379 217.031 358.566 218.244 358.566C219.531 358.566 219.915 358.399 220.662 357.51C223.332 354.332 218.961 350.115 216.035 353.045ZM205.441 352.883C204.936 353.492 205.254 354.648 206.005 354.937C206.533 355.14 207.829 354.282 207.829 353.729C207.829 353.3 206.789 352.384 206.303 352.384C206.056 352.384 205.669 352.609 205.441 352.883ZM194.793 359.425C194.793 359.711 195.098 359.94 195.48 359.94C195.861 359.94 196.166 359.711 196.166 359.425C196.166 359.139 195.861 358.91 195.48 358.91C195.098 358.91 194.793 359.139 194.793 359.425Z" fill="white"/>
<path d="M232.87 21.4627C232.87 25.1616 229.875 28.1601 226.181 28.1601C222.486 28.1601 219.492 25.1616 219.492 21.4627C219.492 17.7638 222.486 14.7653 226.181 14.7653C229.875 14.7653 232.87 17.7638 232.87 21.4627Z" fill="white"/>
</svg>
